<svg viewBox="0 0 24 23" version="1.1" xmlns="http://www.w3.org/2000/svg" xmlns:xlink="http://www.w3.org/1999/xlink">
    <g id="Page-1" stroke="none" stroke-width="1" fill="none" fill-rule="evenodd">
        <g id="Desktop-HD" transform="translate(-843.000000, -748.000000)" fill="#17252A" fill-rule="nonzero">
            <g id="breeze" transform="translate(843.000000, 748.000000)">
                <path d="M20.0000156,5.29826047 C17.7908906,5.29826047 16.0000312,7.08911635 16.0000312,9.29823703 L18,9.29823703 C18,8.19367669 18.8954531,7.29822531 20.0000156,7.29822531 C21.1045781,7.29822531 22.0000313,8.19362981 22.0000313,9.29823703 C22.0000313,10.4028442 21.1045781,11.2982487 20.0000156,11.2982487 L6,11.2982487 L6,13.2982605 L20.0000156,13.2982605 C22.2091406,13.2982136 24,11.5073577 24,9.29823703 C24,7.08911635 22.2091406,5.29826047 20.0000156,5.29826047 Z" id="Path"></path>
                <path d="M15.9817057,14.2982605 L4,14.2982605 L4,16.2982605 L15.9817057,16.2982605 C17.0913243,16.2982605 17.9908764,17.1937066 17.9908764,18.2982605 L17.9908764,18.3711505 C17.9908764,19.4354391 17.1241458,20.2982605 16.05493,20.2982605 L16.05493,22.2982605 C18.2337644,22.2982605 20,20.5400398 20,18.3711974 L20,18.2983073 C20.0000471,16.0891059 18.2009901,14.2982605 15.9817057,14.2982605 Z" id="Path"></path>
                <rect id="Rectangle" x="0" y="11.2982605" width="4" height="2"></rect>
                <path d="M10.0367859,0.298260468 C7.847975,0.298260468 6.07357189,2.06188202 6.07357189,4.2373934 L6.07357189,4.49014291 L8.08581029,4.49014291 L8.08581029,4.2373934 C8.08581029,3.16644237 8.95928786,2.29827219 10.0367859,2.29827219 C11.114284,2.29827219 11.9877616,3.16644237 11.9877616,4.2373934 L11.9877616,4.29828391 C11.9877616,5.40284425 11.0868361,6.29829562 9.9755232,6.29829562 L2,6.29829562 L2,8.29826047 L9.97557036,8.29826047 C12.1981961,8.29826047 14,6.50740459 14,4.29828391 L14,4.2373934 C14,2.06188202 12.2255969,0.298260468 10.0367859,0.298260468 Z" id="Path"></path>
            </g>
        </g>
    </g>
</svg>