<svg width="26px" height="25px" viewBox="0 0 26 25" version="1.1" xmlns="http://www.w3.org/2000/svg" xmlns:xlink="http://www.w3.org/1999/xlink">
    <g id="Page-1" stroke="none" stroke-width="1" fill="none" fill-rule="evenodd">
        <g id="Desktop-HD" transform="translate(-982.000000, -746.000000)" fill="#17252A" fill-rule="nonzero">
            <g id="humidity" transform="translate(982.000000, 746.000000)">
                <path d="M25.9999591,9.88388926 C25.9999591,6.70719212 21.3199786,1.40685604 20.3804371,0.377047622 C19.9196684,-0.104925079 19.149297,-0.127902133 18.6597216,0.325843563 C18.6418559,0.342411587 18.624475,0.35945688 18.6077172,0.377047622 C16.9673281,2.1953031 15.50338,4.16069355 14.2349851,6.24751466 C13.4668296,5.32243253 12.8758768,4.66496149 12.6808776,4.44971354 C12.2201089,3.96774084 11.4497375,3.94476378 10.9601621,4.39850948 C10.9422964,4.4150775 10.9249155,4.43212279 10.9081577,4.44971354 C9.29609058,6.24853738 7.80015044,8.14506485 6.42906241,10.1281824 C5.88540523,9.22635005 5.3595445,8.45835733 5.07590932,8.05690659 C4.70467685,7.52829797 3.96851337,7.39616286 3.43171163,7.76168212 C3.31447668,7.84152227 3.21289152,7.94154405 3.13187268,8.05690659 C2.42278473,9.11582837 4.44780211e-05,12.7114306 4.44780211e-05,14.5382769 C-0.00978857756,16.6437115 1.61190388,18.4094675 3.74048342,18.6109428 C4.7266281,23.0034466 9.14250102,25.7771931 13.6037306,24.8062932 C17.3884183,23.9825964 20.0848915,20.6819459 20.0908467,16.8655049 C20.0872459,16.6707794 20.0714576,16.4764631 20.0435511,16.2837149 C23.419613,16.0048539 26.0118696,13.2195849 25.9999591,9.88388926 Z M4.13643703,16.2838513 C3.15742478,16.2838513 2.36371715,15.5023587 2.36371715,14.5384133 C2.36371715,13.9566234 3.17328231,12.4031835 4.13643703,10.8555391 C5.09959175,12.4031835 5.90915691,13.9566234 5.90915691,14.5384133 C5.90915691,15.5023587 5.11544928,16.2838513 4.13643703,16.2838513 Z M11.8182001,22.6837451 C9.05954327,22.6688134 6.6738501,20.7872177 6.05686048,18.139811 C7.41735374,17.4376131 8.27061368,16.0508762 8.27276033,14.5384133 C8.22650342,13.883465 8.05823353,13.2424938 7.77639876,12.6475449 C7.82376362,12.39132 7.92874188,12.1487996 8.08364713,11.9377107 C9.22892112,10.2241133 10.4759188,8.57862892 11.8182001,7.00978016 C14.4063711,10.0235925 17.7272433,14.6490032 17.7272433,16.8657094 C17.7273125,20.0788835 15.0817358,22.6837451 11.8182001,22.6837451 Z M19.5000324,13.9565552 L19.3582148,13.9565552 C18.4104329,11.9396198 17.2371832,10.0330697 15.8600707,8.27222273 C15.8820912,8.20049614 15.9139447,8.13197406 15.9545926,8.06856557 C16.9506396,6.24417379 18.1390544,4.5280537 19.5000324,2.94863687 C21.438183,5.27586479 23.6363557,8.42931215 23.6363557,9.88382108 C23.6363557,12.1331861 21.7844174,13.9565552 19.5000324,13.9565552 Z" id="Shape"></path>
                <path d="M21.9739383,8.09770111 C21.9681034,8.07208741 21.9612804,8.04702033 21.9536104,8.02281226 C21.88938,7.78955575 21.8171032,7.54966154 21.7407796,7.30976733 C21.6220592,6.99888879 21.373984,6.90658575 21.1866572,7.10360824 C21.0158467,7.28321653 20.9521809,7.64563484 21.0380567,7.94948522 C21.1063339,8.15603476 21.1705643,8.36930009 21.2227485,8.56921193 C21.3011896,8.91343513 21.5329366,9.08695237 21.7403561,8.95669731 C21.9477756,8.82644225 22.0523793,8.44192431 21.9739383,8.09770111 Z" id="Path"></path>
                <path d="M21.8798385,7.07059179 C21.2977477,6.34438932 20.6806476,5.67775624 20.2668643,5.24326242 C20.0378248,4.97819957 19.5989761,4.92086228 19.2866047,5.11526496 C18.9743154,5.30966764 18.9067623,5.68215071 19.1358018,5.94728331 C19.1495261,5.96318709 19.1642366,5.97853283 19.179851,5.99325079 C19.5795813,6.40988775 20.1686575,7.04680589 20.7156569,7.73729463 C20.9325336,8.01016986 21.3689989,8.0820856 21.6904104,7.89800642 C22.0119862,7.71392724 22.0967152,7.34346703 21.8798385,7.07059179 Z" id="Path"></path>
                <path d="M12.979202,20.3127405 C12.90064,20.0813891 12.6223677,19.9495024 12.3577253,20.0181817 C12.0791021,20.0907986 11.7898908,20.1275162 11.4991586,20.1272605 C11.2234602,20.1272605 11,20.3226102 11,20.5636269 C11,20.8046435 11.2234602,20.9999933 11.4991586,20.9999933 C11.8861776,21.0006581 12.2712076,20.9521786 12.6422568,20.8559867 C12.9068992,20.7873586 13.0577641,20.544143 12.979202,20.3127405 Z" id="Path"></path>
                <path d="M15.8387128,15.4027696 C15.7597929,15.1048187 15.4802529,14.9349656 15.2144049,15.0234157 C14.9485569,15.1118657 14.7970048,15.4251621 14.8759247,15.723113 C15.1883725,16.8971346 14.9080686,18.1686949 14.143785,19.044568 C13.9496878,19.2659237 13.9524497,19.6217656 14.1499552,19.8393673 C14.2383949,19.9367743 14.355864,19.9940067 14.4797384,20 C14.6137201,19.9994073 14.741943,19.9386843 14.835789,19.8313982 C15.8643339,18.6697583 16.2484737,16.9735323 15.8387128,15.4027696 Z" id="Path"></path>
            </g>
        </g>
    </g>
</svg>